# xmcd
#
# Track frame offsets:
#	150
#	19652
#	51660
#	70195
#	84235
#	104727
#	127485
#	151552
#	174655
#	200152
#	233855
#	255950
#	287460
#
# Disc length: 4000 seconds
#
# Revision: 1
# Processed by: cddbd v1.5.1PL0 Copyright (c) Steve Scherf et al.
# Submitted via: CDex 1.50Beta5
#
DISCID=b60f9e0d
DTITLE=さまざまなアーティスト - MEMORIES OF BILL EVANS a tribute to bill evans
DYEAR=1900
DGENRE=Jazz
TTITLE0=SHIONOYA TRIO/FIVE
TTITLE1=YOSUKE YAMASHITA WITH SAITO-NEKO QUARTET/WALZ FOR DEBBY
TTITLE2=YOSUKE YAMASHITA/ALICE IN WONDERLAND
TTITLE3=MASAHIRO SAYAMA TRIO/MY FUNNY VALENTINE
TTITLE4=MASAHIRO SAYAMA TRIO/A SLEEPIN' BEE
TTITLE5=MASANORI SASAJI ENSEMBLE/GLORIA'S STEP
TTITLE6=MASANORI SASAJI ENSEMBLE/BILL BOP
TTITLE7=YOSHIKO KISHINO TRIO/PEACE PIECE
TTITLE8=MIKIKO MASUDA TRIO/NARDIS
TTITLE9=MIKIKO MASUDA TRIO/POLKA DOTS AND MOONBEAMS
TTITLE10=HIROKO KOKUBU GROUP/MY ROMANCE
TTITLE11=HIROKO KOKUBU GROUP/ISRAEL
TTITLE12=SATORU SHIONOYA/BLUE IN GREEN
EXTD=
EXTT0=
EXTT1=
EXTT2=
EXTT3=
EXTT4=
EXTT5=
EXTT6=
EXTT7=
EXTT8=
EXTT9=
EXTT10=
EXTT11=
EXTT12=
PLAYORDER=
